<svg xmlns="http://www.w3.org/2000/svg" viewBox="0 0 100 100" fill-rule="evenodd"><path d="M17.8 8.7h4.8l.2 5 65.8 5.7.8 13.6h-5.6l1 8.4 6.4-.1L92.4 56l-5.7.7 3 25.4-4.8.7-.6-.4-4-25 .1 17-5 .6-.5-.4.1-16.8-50 6 1.3 26.3-6 1-.7-.5-1-26-2 .2-1 16-6 .8-.6-.4 1.2-15.5-1.8.2V43h3.6l.7-9H7.6L8 12.5l6.5.6.3-4h2v-.4h1zM51 28h1.8c1.3 0 2.5 2 2.4 3l-1 8.8c-.2 2-.6 2.3-2 2.3-1.4.1-1.7-.2-2-2.2l-1.4-9c-.2-1.2 1-3 2.2-3zm1.2 15.6c3-.2 3 4 .1 4.3-3 .2-3-4-.1-4.3zm-18-7l15.4-16c1-1 3-1 4.2.2l16 15c1.2 1 1.2 2.7.1 3.8a328 328 0 0 0-15.3 16c-1 1.3-3 1.5-4.2.5l-16-15c-1.2-1.2-1.2-3.2-.1-4.5zm1 1l15.4-16c.6-.6 1.7-.6 2.4.1l16 15c.7.6.7 1.6.1 2.2C63.6 44 59 49 53.7 54.8c-.7.7-1.8 1-2.4.3l-16-15c-.7-.7-.7-2 0-2.6zm-20 26l18.4-19h2.2l-2-2-9.6.2-.4-9 11.3-.1L49.4 19c1.4-1.3 2.6-1.5 4-.5l.3-.2 10.6 1-5.2 5 4 4 8.4-8.2 10 1-10 10.8H67c2.2 2 1.6 1.8 3 1.8h5.6v8.5l-6 .1a301 301 0 0 0-6.4 6.5l-8.3 9c-1.2 1.4-2 2-3 1.6l-11.4 1.4L46 54l-5-4.7-11.5 12L15 63.3zm7-18.7L10.5 56.3V45l11.5-.2zm39.6 13l12-14 10.3-.2-10 12.8-12.5 1.5zM80 55.5l9.5-12 1 11L80 55.5zM14 32l18.4-15.6 12 1L28 32H14zM21 15.4L9.6 25l.3-10.5 11.2 1zm56.3 16L87 21l.6 10.2-10 .1z"/></svg>