<svg xmlns="http://www.w3.org/2000/svg" viewBox="0 0 24 24">
	<path d="M12 2A10 10 0 0122 12c0 4.42-2.86 8.16-6.83 9.5-.51.09-.67-.23-.67-.5 0-.32 0-1.4 0-2.74 0-.93-.33-1.54-.69-1.85 2.23-.25 4.57-1.09 4.57-4.91 0-1.11-.38-2-1.03-2.71.1-.25.45-1.29-.1-2.64 0 0-.84-.27-2.75 1.02-.79-.22-1.65-.33-2.5-.33s-1.71.11-2.5.33C7.59 5.88 6.75 6.15 6.75 6.15c-.55 1.35-.2 2.39-.1 2.64-.65.71-1.03 1.6-1.03 2.71 0 3.81 2.33 4.67 4.55 4.92-.28.25-.54.69-.63 1.34-.57.24-2.04.69-2.91-.83 0 0-.53-.96-1.53-1.03 0 0-.98-.02-.07.6 0 0 .65.31 1.11 1.47 0 0 .59 1.94 3.36 1.34 0 .83 0 1.46 0 1.69 0 .27-.16.58-.66.5C4.87 20.17 2 16.42 2 12A10 10 0 0112 2Z"/>
</svg>