<svg xmlns="http://www.w3.org/2000/svg" viewBox="170 170 690 690">
	<rect x="190" y="190" width="650" height="650" fill="#2e51a2" rx="50" ry="50"/>
	<path fill="#fff" d="M433 411V590H388V479l-43 51-42-52V591H256V411h47l40 54 43-54zm184 44 1 135h-51V529h-60c2 11 5 27 9 38 3 8 6 16 12 24l-36 24c-8-14-13-29-19-44a198 198 0 01-11-47c-2-16-2-31 2-47a83 83 0 0125-40c7-6 16-11 24-15s16-6 24-8a158 158 0 0125-4c9-1 24-1 51-1l12 37h-59c-13 0-19 0-29 5a48 48 0 00-27 41l57 1 1-39h49zm85-45v141l66 1-9 38H656V409z"/>
</svg>
